<svg width="655" height="2604" viewBox="0 0 655 2604" fill="none" xmlns="http://www.w3.org/2000/svg">
<mask id="mask0_341_3744" style="mask-type:alpha" maskUnits="userSpaceOnUse" x="-532" y="-3" width="1187" height="2607">
<path d="M-117.262 -2.23227L655 127L240.565 2603.56L-531.696 2474.33L-117.262 -2.23227Z" fill="#C4C4C4"/>
</mask>
<g mask="url(#mask0_341_3744)">
<g opacity="0.4">
<path opacity="0.4" fill-rule="evenodd" clip-rule="evenodd" d="M-1141.42 -0.815868L-122.176 169.747C107.708 208.217 262.88 425.761 224.411 655.645L53.8479 1674.89C15.3786 1904.77 -202.166 2059.95 -432.049 2021.48L-1451.29 1850.91C-1681.18 1812.44 -1836.35 1594.9 -1797.88 1365.02L-1627.32 345.772C-1588.85 115.888 -1371.3 -39.2852 -1141.42 -0.815868ZM-121.351 164.816C111.257 203.741 268.267 423.863 229.342 656.471L58.7793 1675.71C19.8545 1908.32 -200.267 2065.33 -432.874 2026.41L-1452.12 1855.84C-1684.73 1816.92 -1841.74 1596.8 -1802.81 1364.19L-1632.25 344.947C-1593.32 112.338 -1373.2 -44.6721 -1140.6 -5.7473L-121.351 164.816Z" fill="#1F213D"/>
<path opacity="0.4" fill-rule="evenodd" clip-rule="evenodd" d="M-867.632 -58.161L72.7389 370.389C284.834 467.046 378.414 717.339 281.756 929.434L-146.793 1869.8C-243.45 2081.89 -493.743 2175.48 -705.835 2078.82L-1646.2 1650.27C-1858.3 1553.61 -1951.88 1303.31 -1855.22 1091.23L-1426.68 150.857C-1330.02 -61.2365 -1079.72 -154.817 -867.632 -58.161ZM74.8124 365.839C289.419 463.642 384.108 716.9 286.307 931.507L-142.243 1871.88C-240.045 2086.48 -493.304 2181.17 -707.915 2083.36L-1648.28 1654.82C-1862.88 1557.02 -1957.57 1303.76 -1859.77 1089.15L-1431.23 148.783C-1333.41 -65.8226 -1080.16 -160.513 -865.552 -62.7098L74.8124 365.839Z" fill="#1F213D"/>
<path opacity="0.4" fill-rule="evenodd" clip-rule="evenodd" d="M-588.325 -42.6893L209.081 614.642C388.932 762.9 414.543 1028.89 266.285 1208.74L-391.046 2006.14C-539.304 2185.99 -805.286 2211.6 -985.143 2063.34L-1782.55 1406.02C-1962.4 1257.76 -1988.01 991.778 -1839.75 811.921L-1182.42 14.514C-1034.17 -165.337 -768.181 -190.948 -588.325 -42.6893ZM212.262 610.784C394.243 760.798 420.158 1029.93 270.144 1211.92L-387.188 2009.32C-537.201 2191.3 -806.336 2217.22 -988.323 2067.2L-1785.73 1409.88C-1967.7 1259.86 -1993.62 990.727 -1843.61 808.741L-1186.28 11.3336C-1036.26 -170.646 -767.13 -196.562 -585.144 -46.5475L212.262 610.784Z" fill="#1F213D"/>
</g>
</g>
</svg>
