<svg width="15" height="15" viewBox="0 0 15 15" fill="none" xmlns="http://www.w3.org/2000/svg">
<g clip-path="url(#clip0_341_3830)">
<path d="M12.8712 8.87787C12.6221 9.03307 12.3286 9.0523 12.1056 8.92835C11.8223 8.77077 11.6665 8.40168 11.6665 7.8884V6.35271C11.6665 5.61114 11.3689 5.08346 10.8713 4.94097C10.028 4.69895 9.39376 5.71552 9.15542 6.09731L7.66812 8.47309V5.56926C7.65138 4.90115 7.43114 4.50152 7.01297 4.38101C6.7363 4.30136 6.32231 4.33328 5.92017 4.93961L2.58803 10.211C2.14195 9.37664 1.9094 8.44761 1.9106 7.50457C1.9106 4.32918 4.49351 1.746 7.66812 1.746C10.8427 1.746 13.4253 4.32918 13.4253 7.50457C13.4253 7.51008 13.4267 7.51487 13.427 7.52003C13.427 7.52554 13.426 7.53032 13.4264 7.53582C13.4563 8.1507 13.2542 8.63997 12.8712 8.87821V8.87787ZM14.7045 7.50492V7.50457V7.48878L14.7042 7.47298C14.6864 3.60578 11.5372 0.466431 7.66776 0.466431C3.78819 0.466431 0.631348 3.62364 0.631348 7.50457C0.631348 11.3851 3.78819 14.5427 7.66812 14.5427C9.44848 14.5427 11.1477 13.876 12.452 12.6658C12.7113 12.4255 12.7266 12.0206 12.4861 11.7618C12.3719 11.6376 12.2116 11.564 12.0415 11.5575C11.8714 11.551 11.7059 11.6123 11.5822 11.7275C10.525 12.7138 9.12417 13.2634 7.66812 13.2632C5.96824 13.2632 4.43879 12.5219 3.38396 11.3464L6.38885 6.59273V8.78415C6.38885 9.83677 6.80318 10.177 7.15064 10.2766C7.49839 10.3761 8.02984 10.3082 8.58776 9.41554L10.2405 6.77571C10.2935 6.69055 10.3423 6.61708 10.3869 6.55356V7.8884C10.3869 8.87236 10.787 9.65929 11.4843 10.0469C12.1129 10.3964 12.9032 10.3648 13.5472 9.96446C14.3279 9.47869 14.7485 8.58365 14.7045 7.50492Z" fill="white"/>
</g>
<defs>
<clipPath id="clip0_341_3830">
<rect width="14.0763" height="14.0763" fill="white" transform="translate(0.631348 0.466431)"/>
</clipPath>
</defs>
</svg>
