<svg width="454" height="2511" viewBox="0 0 454 2511" fill="none" xmlns="http://www.w3.org/2000/svg">
<g clip-path="url(#clip0_341_3752)">
<mask id="mask0_341_3752" style="mask-type:alpha" maskUnits="userSpaceOnUse" x="0" y="0" width="783" height="2511">
<path d="M783 2511H0V0H783V2511Z" fill="#C4C4C4"/>
</mask>
<g mask="url(#mask0_341_3752)">
<g opacity="0.4">
<path opacity="0.4" fill-rule="evenodd" clip-rule="evenodd" d="M1792.88 2340.57H759.462C526.381 2340.57 337.432 2151.62 337.432 1918.54V885.12C337.432 652.04 526.382 463.09 759.462 463.09H1792.88C2025.96 463.09 2214.91 652.04 2214.91 885.12V1918.54C2214.91 2151.62 2025.96 2340.57 1792.88 2340.57ZM759.462 2345.57C523.62 2345.57 332.432 2154.38 332.432 1918.54V885.12C332.432 649.28 523.62 458.09 759.462 458.09H1792.88C2028.72 458.09 2219.91 649.28 2219.91 885.12V1918.54C2219.91 2154.38 2028.72 2345.57 1792.88 2345.57H759.462Z" fill="#1F213D"/>
<path opacity="0.4" fill-rule="evenodd" clip-rule="evenodd" d="M1532.31 2442.31L534.105 2174.85C308.966 2114.52 175.359 1883.11 235.685 1657.97L503.152 659.77C563.478 434.63 794.893 301.02 1020.03 361.35L2018.23 628.81C2243.37 689.14 2376.98 920.56 2316.65 1145.69L2049.19 2143.89C1988.86 2369.03 1757.44 2502.64 1532.31 2442.31ZM532.811 2179.68C305.005 2118.64 169.815 1884.48 230.855 1656.67L498.322 658.47C559.363 430.67 793.52 295.48 1021.33 356.52L2019.53 623.98C2247.33 685.02 2382.52 919.18 2321.48 1146.99L2054.02 2145.19C1992.97 2372.99 1758.82 2508.19 1531.01 2447.14L532.811 2179.68Z" fill="#1F213D"/>
<path opacity="0.4" fill-rule="evenodd" clip-rule="evenodd" d="M1254.28 2473.15L359.319 1956.45C157.465 1839.91 88.305 1581.8 204.846 1379.94L721.552 484.98C838.093 283.13 1096.2 213.97 1298.06 330.51L2193.02 847.21C2394.87 963.75 2464.03 1221.86 2347.49 1423.72L1830.79 2318.68C1714.25 2520.53 1456.14 2589.69 1254.28 2473.15ZM356.819 1960.78C152.574 1842.86 82.5941 1581.69 200.515 1377.44L717.222 482.48C835.143 278.24 1096.31 208.26 1300.56 326.18L2195.52 842.88C2399.76 960.81 2469.74 1221.97 2351.82 1426.22L1835.12 2321.18C1717.19 2525.43 1456.03 2595.41 1251.78 2477.48L356.819 1960.78Z" fill="#1F213D"/>
</g>
</g>
</g>
<defs>
<clipPath id="clip0_341_3752">
<rect width="764" height="2511" fill="white" transform="matrix(1 0 0 -1 0 2511)"/>
</clipPath>
</defs>
</svg>
