<svg width="170" height="54" viewBox="0 0 170 54" fill="none" xmlns="http://www.w3.org/2000/svg">
<path d="M56.8373 11.2818C58.1411 12.4838 58.7932 13.9874 58.7932 15.7927V19.1601C58.7932 20.9575 58.1411 22.629 56.8373 24.1742C55.4791 25.6718 53.9075 26.5379 52.1224 26.773L31.6621 29.4667V26.0993L52.1224 23.4057C53.0461 23.284 53.8338 22.8507 54.4857 22.1055C55.1376 21.3604 55.4636 20.5247 55.4636 19.5984V16.2312C55.4636 15.297 55.1376 14.5433 54.4857 13.9697C53.8338 13.3962 53.0461 13.1702 52.1224 13.2918L40.4925 14.823V11.4556L52.1224 9.92453C53.9075 9.68948 55.4791 10.142 56.8373 11.2818Z" fill="white"/>
<path d="M66.3977 22.0927L64.9076 25.0911L61.124 25.5892L70.0881 7.56057L73.5806 7.10083L82.5447 22.7691L78.7611 23.2672L77.271 20.6613L66.3977 22.0927ZM71.8343 11.169L68.1905 18.4776L75.4781 17.5181L71.8343 11.169Z" fill="white"/>
<path d="M98.6218 14.5297L101.87 20.2245L98.098 20.7212L95.141 15.5532L84.873 16.905V13.5376L96.1887 12.0479C96.8019 11.9671 97.3258 11.6784 97.7604 11.1816C98.195 10.6848 98.4123 10.1265 98.4123 9.50635C98.4123 8.88622 98.195 8.38504 97.7604 8.00269C97.3258 7.62034 96.8019 7.4696 96.1887 7.55021L84.873 9.03994V5.67265L96.1887 4.18292C97.2054 4.04907 98.1329 4.18207 98.971 4.58193C99.817 4.97291 100.488 5.55956 100.985 6.34185C101.49 7.12321 101.742 8.03186 101.742 9.06804C101.742 10.1747 101.455 11.2134 100.88 12.1837C100.314 13.1454 99.5609 13.9273 98.6218 14.5297Z" fill="white"/>
<path d="M113.882 8.47169L124.452 17.2527L119.621 17.8888L110.972 10.7033L107.526 13.3469V19.4811L104.196 19.9194V3.07098L107.526 2.63265V9.36736L118.096 1.24101L124.349 0.417969L113.882 8.47169Z" fill="white"/>
<path d="M18.3239 37.6884L3.3295 39.6625V43.0415L14.9944 41.5058V44.8732L3.3295 46.4089V53.1436L0 53.5819V36.7335L1.66475 36.5143L3.3295 36.2952L18.3239 34.321V37.6884Z" fill="white"/>
<path d="M34.403 42.9275L37.651 48.6224L33.8791 49.1189L30.9221 43.951L20.6543 45.3027V41.9354L31.9699 40.4457C32.5831 40.3649 33.1069 40.0762 33.5415 39.5794C33.9761 39.0826 34.1935 38.5242 34.1935 37.904C34.1935 37.284 33.9761 36.7827 33.5415 36.4004C33.1069 36.018 32.5831 35.8673 31.9699 35.948L20.6543 37.4378V34.0704L31.9699 32.5806C32.9866 32.4468 33.9141 32.5798 34.7523 32.9796C35.5982 33.3707 36.2695 33.9574 36.7663 34.7397C37.2707 35.5209 37.523 36.4297 37.523 37.4657C37.523 38.5725 37.2358 39.6111 36.6615 40.5815C36.0949 41.5431 35.3422 42.325 34.403 42.9275Z" fill="white"/>
<path d="M39.9756 41.5865V38.2191C39.9756 36.4138 40.6275 34.7384 41.9314 33.1932C43.2895 31.6957 44.8573 30.8299 46.6345 30.596L52.7465 29.7913C54.5237 29.5573 56.0953 30.0098 57.4613 31.1486C58.7574 32.3516 59.4054 33.8557 59.4054 35.6611V39.0284C59.4054 40.8259 58.7574 42.4968 57.4613 44.0411C56.0953 45.5396 54.5237 46.4059 52.7465 46.6398L46.6345 47.4444C44.8573 47.6784 43.2895 47.2254 41.9314 46.0856C40.6275 44.8836 39.9756 43.3839 39.9756 41.5865ZM43.3051 37.7808V41.148C43.3051 42.0743 43.631 42.8241 44.283 43.3977C44.9349 43.9712 45.7188 44.1976 46.6345 44.0771L52.7465 43.2724C53.6623 43.1519 54.4461 42.719 55.0981 41.9738C55.75 41.2287 56.0759 40.393 56.0759 39.4667V36.0994C56.0759 35.1654 55.75 34.4116 55.0981 33.8381C54.4461 33.2645 53.6623 33.038 52.7465 33.1587L46.6345 33.9632C45.7188 34.0839 44.9349 34.5167 44.283 35.2619C43.631 36.007 43.3051 36.8467 43.3051 37.7808Z" fill="white"/>
<path d="M65.0734 32.1919V45.0138L61.7439 45.4521V28.6036L65.7836 28.0717L78.6825 39.2071V26.3736L82.012 25.9353V42.7838L77.9723 43.3155L65.0734 32.1919Z" fill="white"/>
<path d="M102.962 23.1802V26.5475L95.1852 27.5714V41.0524L91.8556 41.4907V28.0097L84.3584 28.9967V25.6294L102.962 23.1802Z" fill="white"/>
<path d="M105.291 22.8745L108.621 22.436V39.2846L105.291 39.7229V22.8745Z" fill="white"/>
<path d="M114.272 38.539L112.607 38.7582L110.942 38.9773V22.1289L112.607 21.9098L114.272 21.6906L129.267 19.7166V23.0838L114.272 25.0578V28.437L125.937 26.9013V30.2686L114.272 31.8043V35.1717L129.267 33.1976V36.565L114.272 38.539Z" fill="white"/>
<path d="M145.349 28.321L148.596 34.0158L144.825 34.5124L141.867 29.3444L131.6 30.6961V27.3288L142.915 25.8391C143.528 25.7584 144.052 25.4696 144.487 24.9729C144.922 24.4761 145.139 23.9176 145.139 23.2976C145.139 22.6775 144.922 22.1763 144.487 21.7939C144.052 21.4116 143.528 21.2607 142.915 21.3415L131.6 22.8312V19.4639L142.915 17.9742C143.932 17.8403 144.86 17.9733 145.698 18.3732C146.543 18.7641 147.215 19.3508 147.711 20.1331C148.216 20.9145 148.469 21.8231 148.469 22.8592C148.469 23.966 148.182 25.0045 147.607 25.975C147.04 26.9365 146.287 27.7186 145.349 28.321Z" fill="white"/>
<path d="M152.052 25.5486C151.516 25.1558 151.097 24.6499 150.794 24.0304C150.492 23.4031 150.341 22.7244 150.341 21.9943C150.341 21.0682 150.566 20.1948 151.016 19.3741C151.466 18.5456 152.067 17.8541 152.82 17.2998C153.581 16.7444 154.419 16.4064 155.335 16.2858L169.212 14.459V17.8263L155.335 19.6532C154.878 19.7135 154.485 19.9299 154.16 20.3025C153.833 20.6751 153.67 21.0929 153.67 21.556C153.67 22.0192 153.849 22.3999 154.206 22.6983C154.485 22.889 154.842 22.9834 155.276 22.9811C155.711 22.971 156.197 22.9307 156.732 22.8602C156.824 22.848 156.918 22.8357 157.011 22.8234L157.023 22.8219C158.327 22.6738 159.631 22.506 160.935 22.3187L161.318 22.2681C161.955 22.1765 162.588 22.0814 163.216 21.9829C163.433 21.9543 163.654 21.9213 163.88 21.8838C164.4 21.7996 164.946 21.7512 165.522 21.7383C166.104 21.7245 166.681 21.8171 167.256 22.0162C168.691 22.5729 169.576 23.6378 169.911 25.2107C170.05 25.9538 170.026 26.7064 169.84 27.4687C169.639 28.2802 169.27 29.0235 168.734 29.6984C168.253 30.2954 167.695 30.7811 167.058 31.1554C166.422 31.5295 165.754 31.7627 165.056 31.8546L150.899 33.7183V30.3509L165.056 28.4873C165.506 28.428 165.905 28.1909 166.255 27.7759C166.612 27.3209 166.74 26.8212 166.638 26.2773C166.53 25.7578 166.247 25.4104 165.789 25.2353C165.293 25.0966 164.675 25.0993 163.938 25.2435C163.721 25.2799 163.503 25.3124 163.287 25.3411C162.649 25.4406 162.002 25.5377 161.342 25.6324L160.957 25.683C159.631 25.8812 158.296 26.0531 156.953 26.1983C156.867 26.2097 156.783 26.2208 156.697 26.2322C155.975 26.3428 155.207 26.3852 154.392 26.359C153.584 26.324 152.804 26.0538 152.052 25.5486Z" fill="white"/>
</svg>
