<svg width="38" height="39" viewBox="0 0 38 39" fill="none" xmlns="http://www.w3.org/2000/svg">
<path d="M19 38.0569C29.4934 38.0569 38 29.5504 38 19.0569C38 8.56353 29.4934 0.0569458 19 0.0569458C8.50659 0.0569458 0 8.56353 0 19.0569C0 29.5504 8.50659 38.0569 19 38.0569Z" fill="#627EEA"/>
<path d="M19.5913 4.80695V15.3401L28.494 19.3182L19.5913 4.80695Z" fill="white" fill-opacity="0.602"/>
<path d="M19.5914 4.80695L10.6875 19.3182L19.5914 15.3401V4.80695Z" fill="white"/>
<path d="M19.5913 26.144V33.301L28.4999 20.976L19.5913 26.144Z" fill="white" fill-opacity="0.602"/>
<path d="M19.5914 33.301V26.1428L10.6875 20.976L19.5914 33.301Z" fill="white"/>
<path d="M19.5913 24.4874L28.494 19.3182L19.5913 15.3424V24.4874Z" fill="white" fill-opacity="0.2"/>
<path d="M10.6875 19.3182L19.5914 24.4874V15.3424L10.6875 19.3182Z" fill="white" fill-opacity="0.602"/>
</svg>
