<svg width="156" height="44" viewBox="0 0 156 44" fill="none" xmlns="http://www.w3.org/2000/svg">
<g clip-path="url(#clip0_341_3983)">
<path d="M43.251 5.79654H50.3564C52.1618 5.79654 53.4819 6.28362 54.3362 7.12141C55.1709 7.8423 55.5398 8.81648 55.5398 9.77117C55.5398 10.1414 55.5398 10.609 55.4233 10.9792C55.1903 11.5831 54.8215 12.1871 54.3362 12.6742C54.1031 12.908 53.8508 13.0444 53.6179 13.1613C54.4526 13.3951 55.1903 13.8822 55.7921 14.4862C56.2775 15.0902 56.5105 15.811 56.5105 16.9021C56.5105 17.5061 56.3939 18.2271 56.1416 18.7141C55.9087 19.2012 55.4233 19.6883 54.938 20.039C54.3362 20.4091 53.7343 20.643 53.1325 20.8767C52.4142 21.1106 51.56 21.1106 50.7252 21.1106H43.3675V5.75757H43.251V5.79654ZM49.7546 12.0703C50.3564 12.0703 50.9582 11.9533 51.56 11.7C52.0454 11.4663 52.2783 10.9792 52.2783 10.4921C52.2783 10.005 52.0454 9.51789 51.6765 9.28409C51.1911 8.91389 50.5893 8.79699 49.9875 8.91389H46.6095V12.1676H49.7351V12.0703H49.7546ZM50.5893 18.2465C51.1911 18.2465 51.7929 18.1296 52.3948 17.8763C52.8801 17.6425 53.1131 17.1554 52.9967 16.5514C52.9967 16.0644 52.7636 15.5773 52.3948 15.3434C52.0259 15.1097 51.3077 14.8563 50.4728 14.8563H46.4931V18.2465H50.5893Z" fill="#ABACB1"/>
<path d="M60.7048 5.79639H64.0828V21.2663H60.7048V5.79639Z" fill="#ABACB1"/>
<path d="M69.2651 5.79639H72.3908L79.6126 15.3433V5.79639H82.9712V21.2663H80.098L72.5072 11.4661V21.2663H69.2651V5.79639Z" fill="#ABACB1"/>
<path d="M93.2216 5.67944H96.3471L102.967 21.2663H99.4727L98.0361 17.7592H91.5326L90.096 21.2663H86.6016L93.2216 5.67944ZM96.8325 14.8562L94.794 9.79047L92.7557 14.8562H96.8325Z" fill="#ABACB1"/>
<path d="M106.579 5.79639H109.705L116.927 15.3433V5.79639H120.305V21.2663H117.411L109.937 11.4661V21.2663H106.579V5.79639Z" fill="#ABACB1"/>
<path d="M132.573 21.5003C131.486 21.5003 130.399 21.2664 129.448 20.8963C127.526 20.0585 126.07 18.5972 125.235 16.6683C124.866 15.6942 124.633 14.6226 124.633 13.5315C124.633 11.4857 125.468 9.42048 126.924 7.86181C127.642 7.14091 128.497 6.53692 129.448 6.16674C130.535 5.67964 131.622 5.56274 132.69 5.56274C133.292 5.56274 134.01 5.56274 134.612 5.67965C135.214 5.79655 135.699 5.91345 136.184 6.16674C136.67 6.40054 137.155 6.65382 137.505 6.88762C137.873 7.12142 138.339 7.49161 138.708 7.86181L136.67 10.3947C136.068 9.90757 135.466 9.42048 134.864 9.06977C134.262 8.71907 133.544 8.58269 132.826 8.58269C132.224 8.58269 131.622 8.69959 131.02 8.95287C130.418 9.18667 129.933 9.55686 129.584 10.0439C129.234 10.531 128.866 11.0181 128.613 11.6221C128.38 12.2261 128.244 12.8301 128.244 13.4341C128.244 14.0381 128.361 14.7589 128.613 15.3629C128.866 15.967 129.098 16.454 129.584 16.9411C130.418 17.9152 131.622 18.3829 132.826 18.3829C133.544 18.3829 134.398 18.2659 135.116 17.8958C135.718 17.5257 136.437 17.058 136.922 16.571L139.077 18.7336C138.708 19.1038 138.242 19.5714 137.873 19.9416C137.388 20.3117 136.902 20.5456 136.437 20.7793C135.951 21.0132 135.349 21.2664 134.748 21.3833C133.893 21.5003 133.175 21.5003 132.573 21.5003Z" fill="#ABACB1"/>
<path d="M142.941 5.79639H154.492V8.81634H146.182V11.9532H153.521V14.9732H146.182V18.2464H154.608V21.2663H142.941V5.79639Z" fill="#ABACB1"/>
<path d="M47.5804 36.4832C46.7455 36.4832 45.8914 36.3663 45.1731 35.9961C44.4547 35.7623 43.7365 35.2753 42.9988 34.6713L44.2024 33.3463C44.6878 33.8334 45.1731 34.0673 45.7749 34.4374C46.3768 34.6713 46.9786 34.8076 47.5804 34.8076C48.0657 34.8076 48.5511 34.6907 49.017 34.4374C49.3858 34.2036 49.5023 33.8334 49.5023 33.4633C49.5023 33.3463 49.5023 33.0931 49.3858 32.9762C49.2694 32.8593 49.1529 32.606 49.017 32.4891C48.784 32.3722 48.5317 32.2553 48.2986 32.1189C47.9299 32.002 47.4639 31.8851 47.095 31.7487C46.6097 31.6318 46.0079 31.515 45.5225 31.2616C45.1537 31.1447 44.6878 30.8914 44.4354 30.6576C44.2024 30.4239 43.9501 30.1706 43.7171 29.8199C43.4841 29.3328 43.4841 28.8457 43.4841 28.495C43.4841 28.0079 43.6006 27.6572 43.7171 27.1701C43.8335 26.8 44.2024 26.4493 44.4354 26.196C44.8042 25.9621 45.1537 25.7089 45.6391 25.592C46.1243 25.475 46.6097 25.3582 47.0756 25.3582C47.794 25.3582 48.5122 25.475 49.2499 25.7284C49.8517 25.9621 50.4536 26.3324 51.0554 26.7025L50.0848 28.1443C49.5994 27.7741 49.1141 27.5403 48.6481 27.3065C48.1628 27.0727 47.6774 27.0727 47.2115 27.0727C46.7262 27.0727 46.2409 27.1896 45.8914 27.4429C45.6585 27.6766 45.406 28.0469 45.406 28.417C45.406 28.6509 45.406 28.7873 45.5225 29.021C45.6391 29.138 45.7555 29.3913 45.8914 29.5081C46.1243 29.625 46.3767 29.742 46.7262 29.8784C47.095 29.9952 47.4445 30.1121 48.0463 30.2485C48.5317 30.3654 49.017 30.4823 49.6188 30.7356C49.9876 30.8525 50.3371 31.1058 50.706 31.3396C50.9389 31.5733 51.1913 31.9436 51.3078 32.1773C51.4243 32.5476 51.5407 32.8983 51.5407 33.3853C51.5407 33.8724 51.4243 34.3595 51.3078 34.7102C51.0748 35.0804 50.8225 35.4311 50.473 35.8012C50.1041 36.0351 49.7547 36.2883 49.2694 36.4053C48.6675 36.3663 48.0657 36.4832 47.5804 36.4832Z" fill="#ABACB1"/>
<path d="M53.5986 25.4934H55.6565L58.8985 30.5591L62.2765 25.4934H64.3149V36.3651H62.393V28.5133L59.0151 33.579H58.8985L55.54 28.5133V36.3651H53.5986V25.4934Z" fill="#ABACB1"/>
<path d="M70.8196 25.3774H72.625L77.3231 36.2492H75.2846L74.1975 33.5995H69.1499L68.0628 36.2492H66.1409L70.8196 25.3774ZM73.5956 32.0213L71.6737 27.6765L69.8683 32.0213H73.5956Z" fill="#ABACB1"/>
<path d="M79.2446 25.4934H84.0591C84.6609 25.4934 85.2628 25.6103 85.8646 25.7271C86.3499 25.8441 86.8353 26.2143 87.1848 26.565C87.4177 26.7988 87.67 27.169 87.903 27.6561C88.0195 28.0262 88.1359 28.4938 88.1359 28.9809C88.1359 29.3512 88.0195 29.8187 87.903 30.1889C87.7866 30.5591 87.5341 30.7929 87.4177 31.1631C87.1848 31.3968 86.9323 31.6502 86.5828 31.884C86.214 32.1178 85.8646 32.2542 85.4958 32.3711L88.3884 36.4821H86.0976L83.4573 32.7412H81.0501V36.4821H79.1282L79.2446 25.4934ZM83.9427 30.8124C84.5445 30.8124 85.1463 30.6955 85.5151 30.3253C85.884 29.9551 86.117 29.4875 86.117 29.0004C86.117 28.5133 85.884 28.0262 85.5151 27.6755C85.0298 27.3054 84.428 27.1885 83.8262 27.1885H81.0501V30.8124H83.9427Z" fill="#ABACB1"/>
<path d="M93.0861 27.1884H89.5916V25.4934H98.3859V27.1884H94.8915V36.3651H92.9695L93.0861 27.1884Z" fill="#ABACB1"/>
<path d="M110.073 36.4829C109.354 36.4829 108.636 36.366 107.898 35.9958C106.578 35.3918 105.491 34.4177 105.005 33.0928C104.773 32.3719 104.52 31.6509 104.636 30.9107C104.636 30.1897 104.753 29.4689 105.005 28.7285C105.491 27.4035 106.578 26.3125 107.898 25.7085C108.617 25.4747 109.335 25.2214 110.189 25.2214C110.674 25.2214 111.16 25.2214 111.509 25.3383C111.878 25.4552 112.227 25.5721 112.596 25.7085C112.965 25.8254 113.198 26.0787 113.567 26.1956C113.8 26.4294 114.169 26.6827 114.401 26.9165L113.198 28.3582C112.83 27.9881 112.363 27.6374 111.878 27.3841C111.392 27.1503 110.791 27.0139 110.189 27.0139C109.704 27.0139 109.218 27.1308 108.752 27.2477C108.267 27.4815 107.917 27.7348 107.548 28.0855C107.18 28.4557 106.947 28.8064 106.83 29.2935C106.714 29.7806 106.597 30.2676 106.597 30.7353C106.597 31.2223 106.714 31.7094 106.83 32.177C106.947 32.6446 107.199 33.0148 107.548 33.385C107.917 33.7552 108.267 33.989 108.752 34.2228C109.238 34.4566 109.723 34.593 110.189 34.4566C110.791 34.4566 111.392 34.3397 111.878 34.0864C112.363 33.8527 112.848 33.4824 113.314 32.9953L114.518 34.2034C114.285 34.4371 113.917 34.8074 113.683 35.0411C113.314 35.2749 113.082 35.5282 112.713 35.6451C112.344 35.7621 111.995 36.0153 111.509 36.0153C111.023 36.4829 110.539 36.4829 110.073 36.4829Z" fill="#ABACB1"/>
<path d="M116.441 25.4934H118.246V29.9551H123.431V25.4934H125.353V36.3651H123.431V31.7671H118.246V36.3651H116.441V25.4934Z" fill="#ABACB1"/>
<path d="M131.972 25.3774H133.777L138.476 36.2492H136.437L135.35 33.5995H130.302L129.215 36.2492H127.293L131.972 25.3774ZM134.632 32.0213L132.825 27.6765L131.02 32.0213H134.632Z" fill="#ABACB1"/>
<path d="M140.398 25.4934H142.339V36.3651H140.398V25.4934Z" fill="#ABACB1"/>
<path d="M145.211 25.4934H146.899L152.685 32.9751V25.4934H154.607V36.3651H153.034L147.153 28.6302V36.3651H145.211V25.4934Z" fill="#ABACB1"/>
<path d="M22.0717 35.6452V40.3602L17.9755 42.7762L13.9957 40.3602V35.6452L17.9755 38.0611L22.0717 35.6452ZM0.153809 19.3375L4.13359 21.7535V29.8391L10.9866 33.9501V38.6651L0.153809 32.255V19.3375ZM35.7971 19.3375V32.2745L24.8479 38.6846V33.9696L31.7009 29.8586V21.7729L35.7971 19.3375ZM24.8285 12.9274L28.9247 15.3434V20.0584L22.0717 24.1694V32.372L18.092 34.7879L14.1316 32.372V24.1499L7.02621 20.0388V15.3239L11.1224 12.9079L17.9755 17.0189L24.8285 12.9274ZM7.02621 23.429L11.006 25.8449V30.56L7.02621 28.144V23.429ZM28.9247 23.429V28.144L24.9449 30.56V25.8449L28.9247 23.429ZM4.13359 8.81638L8.22985 11.2324L4.13359 13.6483V18.3633L0.153809 15.9474V11.2324L4.13359 8.81638ZM31.8173 8.81638L35.9135 11.2324V15.9474L31.8173 18.3633V13.6483L27.8375 11.2324L31.8173 8.81638ZM17.9755 8.81638L22.0717 11.2324L17.9755 13.6483L13.9957 11.2324L17.9755 8.81638ZM17.9755 0.730713L28.9247 7.14079L24.9449 9.55675L18.092 5.44572L11.103 9.55675L7.12328 7.14079L17.9755 0.730713Z" fill="#ABACB1"/>
</g>
<defs>
<clipPath id="clip0_341_3983">
<rect width="155" height="42.3667" fill="white" transform="translate(0.153809 0.730713)"/>
</clipPath>
</defs>
</svg>
