<svg width="209" height="46" viewBox="0 0 209 46" fill="none" xmlns="http://www.w3.org/2000/svg">
<g clip-path="url(#clip0_341_3971)">
<path d="M0.036377 45.7013L20.5093 7.91742L38.5903 0L18.089 37.7839L0.036377 45.7013Z" fill="#ABACB1"/>
<path d="M20.4519 37.0794L35.9988 8.36816L44.8825 17.0182L29.5067 45.7857L20.4519 37.0794Z" fill="#ABACB1"/>
<path d="M46.5925 17.8635L58.0957 22.0336L52.3441 32.515L38.3918 32.9941L46.5925 17.8635Z" fill="#ABACB1"/>
<path d="M79.667 35.9964H72.4241V15.7744H79.7208C81.7671 15.7744 83.5438 16.1741 85.0251 16.9734C86.5058 17.7726 87.6633 18.9449 88.4445 20.437C89.2521 21.9556 89.6289 23.7406 89.6289 25.8454C89.6289 27.9502 89.2252 29.7619 88.4176 31.2806C87.6095 32.7992 86.4789 33.9449 84.9708 34.7708C83.5169 35.5967 81.7402 35.9964 79.667 35.9964ZM76.7319 32.3196H79.4782C81.3899 32.3196 82.8438 31.8135 83.8403 30.7744C84.8363 29.7619 85.321 28.11 85.321 25.8454C85.321 23.6074 84.8363 21.9822 83.8403 20.9431C82.8438 19.9307 81.3899 19.4245 79.4782 19.4245H76.7319V32.3196Z" fill="#ABACB1"/>
<path d="M92.8592 35.9962H88.228L95.2826 15.8008H100.856L107.884 35.9962H103.252L101.744 31.3869H94.3669L92.8592 35.9962ZM95.4709 28.0566H100.668L98.1634 20.4101H98.002L95.4709 28.0566Z" fill="#ABACB1"/>
<path d="M125.602 25.8986C125.602 28.1099 125.171 29.9749 124.336 31.5202C123.502 33.0655 122.344 34.2377 120.917 35.0638C119.463 35.863 117.847 36.2893 116.043 36.2893C114.239 36.2893 112.596 35.8897 111.17 35.0638C109.716 34.2377 108.585 33.0655 107.75 31.5202C106.916 29.9749 106.485 28.1099 106.485 25.9252C106.485 23.7138 106.916 21.8488 107.75 20.3035C108.585 18.7582 109.716 17.586 111.17 16.76C112.624 15.9607 114.239 15.5344 116.043 15.5344C117.847 15.5344 119.463 15.934 120.917 16.76C122.371 17.5593 123.502 18.7582 124.336 20.3035C125.198 21.7956 125.602 23.6871 125.602 25.8986ZM121.24 25.8986C121.24 23.7672 120.756 22.1152 119.813 20.9963C118.87 19.8772 117.604 19.291 116.043 19.291C114.482 19.291 113.216 19.8506 112.274 20.9963C111.331 22.1418 110.847 23.7672 110.847 25.8986C110.847 28.03 111.331 29.6818 112.274 30.8009C113.216 31.9198 114.482 32.506 116.043 32.506C117.604 32.506 118.87 31.9465 119.813 30.8009C120.756 29.6552 121.24 28.03 121.24 25.8986Z" fill="#ABACB1"/>
<path d="M131.39 15.7744H136.722L142.348 29.3623H142.591L148.218 15.7744H153.523V35.9964H149.322V22.8348H149.161L143.883 35.8898H141.029L135.752 22.7815H135.591V35.9964H131.39V15.7744Z" fill="#ABACB1"/>
<path d="M159.797 36.2627C158.343 36.2627 157.131 35.8898 156.162 35.1171C155.192 34.3711 154.708 33.2254 154.708 31.7334C154.708 30.6144 154.977 29.7086 155.516 29.0691C156.054 28.4297 156.754 27.9501 157.643 27.6571C158.505 27.364 159.447 27.1508 160.47 27.0709C161.79 26.9377 162.758 26.8045 163.325 26.6446C163.89 26.4847 164.186 26.1917 164.186 25.6855V25.6322C164.186 25.0194 163.997 24.5132 163.593 24.1934C163.189 23.8471 162.651 23.6872 161.924 23.6872C161.171 23.6872 160.55 23.8471 160.093 24.1934C159.636 24.5132 159.339 24.9394 159.205 25.4457L155.274 25.1259C155.57 23.7405 156.296 22.6482 157.454 21.8489C158.612 21.0496 160.12 20.6233 161.951 20.6233C163.082 20.6233 164.159 20.8098 165.128 21.1562C166.125 21.5025 166.905 22.062 167.524 22.808C168.144 23.554 168.44 24.5398 168.44 25.7387V35.9963H164.401V33.8915H164.293C163.917 34.5842 163.378 35.1704 162.624 35.6233C161.87 36.0496 160.928 36.2627 159.797 36.2627ZM161.008 33.3853C161.951 33.3853 162.704 33.1189 163.297 32.586C163.89 32.0531 164.186 31.387 164.186 30.5877V28.9892C164.024 29.0958 163.755 29.2023 163.404 29.2822C163.055 29.3622 162.678 29.4422 162.3 29.4954C161.897 29.5487 161.547 29.602 161.251 29.6553C160.497 29.7618 159.904 29.9749 159.447 30.2681C158.989 30.5877 158.774 31.0407 158.774 31.6269C158.774 32.2129 158.989 32.6393 159.42 32.9324C159.824 33.2254 160.362 33.3853 161.008 33.3853Z" fill="#ABACB1"/>
<path d="M170.055 35.9964V15.7744H174.309V26.5648H174.551L179.451 20.8099H184.324L178.644 27.364L184.621 35.9698H179.64L175.44 29.8685L174.282 31.174V35.9964H170.055Z" fill="#ABACB1"/>
<path d="M190.76 36.2894C189.198 36.2894 187.853 35.9696 186.694 35.3302C185.563 34.6908 184.675 33.7849 184.083 32.6392C183.463 31.467 183.167 30.0816 183.167 28.483C183.167 26.9376 183.463 25.5522 184.083 24.38C184.702 23.2076 185.563 22.2752 186.668 21.6357C187.772 20.9697 189.091 20.6499 190.599 20.6499C191.944 20.6499 193.157 20.943 194.261 21.5026C195.337 22.062 196.199 22.9146 196.846 24.0602C197.492 25.2059 197.814 26.618 197.814 28.3497V29.4954H187.395C187.395 30.6144 187.717 31.5203 188.337 32.1597C188.956 32.7992 189.818 33.1455 190.867 33.1455C191.567 33.1455 192.187 32.9856 192.699 32.6925C193.21 32.3995 193.587 31.9465 193.803 31.3871L197.734 31.6535C197.438 33.0655 196.683 34.1846 195.472 35.0372C194.233 35.8631 192.671 36.2894 190.76 36.2894ZM187.368 26.8844H193.803C193.803 25.9785 193.506 25.2325 192.914 24.6464C192.322 24.0602 191.595 23.7672 190.652 23.7672C189.71 23.7672 188.929 24.0602 188.337 24.673C187.744 25.2858 187.422 26.0318 187.368 26.8844Z" fill="#ABACB1"/>
<path d="M198.863 35.9963V20.8364H202.983V23.4741H203.144C203.414 22.5416 203.898 21.8223 204.545 21.3427C205.191 20.8631 205.972 20.6233 206.806 20.6233C207.291 20.6233 207.722 20.6766 208.152 20.7831V24.5132C207.964 24.46 207.668 24.4066 207.318 24.3533C206.968 24.3 206.645 24.3 206.348 24.3C205.407 24.3 204.625 24.5932 204.033 25.1793C203.414 25.7654 203.117 26.5114 203.117 27.4439V35.9963H198.863Z" fill="#ABACB1"/>
</g>
<defs>
<clipPath id="clip0_341_3971">
<rect width="208.117" height="45.8279" fill="white" transform="translate(0.036377)"/>
</clipPath>
</defs>
</svg>
