<svg width="244" height="45" viewBox="0 0 244 45" fill="none" xmlns="http://www.w3.org/2000/svg">
<g clip-path="url(#clip0_341_4002)">
<path d="M64.7671 17.4214H58.115V35.4696H61.0543V29.359H64.7671C68.2994 29.359 70.9293 26.8065 70.9293 23.4031C70.9293 19.9739 68.2736 17.4214 64.7671 17.4214ZM64.6382 26.5486H61.0543V20.2318H64.6382C66.5719 20.2318 67.9126 21.5724 67.9126 23.4031C67.9126 25.2078 66.5719 26.5486 64.6382 26.5486Z" fill="#ABACB1"/>
<path d="M85.2228 21.5467L84.8877 23.2999C83.6243 21.9849 81.8453 21.2114 79.7826 21.2114C75.6316 21.2114 72.5376 24.3312 72.5376 28.5081C72.5376 32.6849 75.6316 35.8306 79.7826 35.8306C81.8195 35.8306 83.5728 35.0571 84.8361 33.7937L85.1197 35.4696H87.4144V21.5467H85.2228ZM80.0146 33.0717C77.3847 33.0717 75.4511 31.1122 75.4511 28.5081C75.4511 25.904 77.3847 23.9445 80.0146 23.9445C82.6445 23.9445 84.5525 25.8782 84.5525 28.5081C84.5525 31.138 82.6445 33.0717 80.0146 33.0717Z" fill="#ABACB1"/>
<path d="M98.8694 21.2373C96.8326 21.2373 95.1051 22.0882 94.0737 23.5062L93.5066 21.5467H91.5212V35.4696H94.3832V28.0182C94.3832 25.5688 95.9301 23.8156 98.1218 23.8156C100.21 23.8156 101.319 25.1563 101.319 27.6831V35.4696H104.181V27.0901C104.181 23.6609 102.144 21.2373 98.8694 21.2373Z" fill="#ABACB1"/>
<path d="M114.329 35.8306C117.758 35.8306 120.518 33.6647 121.265 30.416H118.377C117.63 32.1178 116.159 33.0975 114.329 33.0975C111.854 33.0975 109.946 31.0864 109.946 28.5081C109.946 25.9297 111.828 23.9445 114.329 23.9445C116.134 23.9445 117.681 24.9242 118.403 26.5227H121.24C120.466 23.3257 117.784 21.2114 114.329 21.2114C110.178 21.2114 107.032 24.357 107.032 28.5081C107.032 32.6592 110.178 35.8306 114.329 35.8306Z" fill="#ABACB1"/>
<path d="M135.757 21.5467L135.421 23.2999C134.158 21.9849 132.379 21.2114 130.317 21.2114C126.165 21.2114 123.071 24.3312 123.071 28.5081C123.071 32.6849 126.165 35.8306 130.317 35.8306C132.353 35.8306 134.106 35.0571 135.37 33.7937L135.654 35.4696H137.948V21.5467H135.757ZM130.548 33.0717C127.919 33.0717 125.985 31.1122 125.985 28.5081C125.985 25.904 127.919 23.9445 130.548 23.9445C133.178 23.9445 135.087 25.8782 135.087 28.5081C135.087 31.138 133.178 33.0717 130.548 33.0717Z" fill="#ABACB1"/>
<path d="M151.105 35.4697H154.612L149.378 28.2504L154.096 21.5467H150.719L146.955 26.9354H145.201V16.5706H142.339V35.4697H145.201V29.5395H146.928L151.105 35.4697Z" fill="#ABACB1"/>
<path d="M169.483 28.5596C169.483 24.5117 166.647 21.2114 162.367 21.2114C158.294 21.2114 155.225 24.357 155.225 28.5081C155.225 32.6849 158.294 35.8306 162.367 35.8306C165.487 35.8306 168.039 34.0257 169.148 31.0864H166.131C165.384 32.3755 164.043 33.149 162.367 33.149C160.098 33.149 158.474 31.7568 158.113 29.4879H169.405C169.457 29.1785 169.483 28.869 169.483 28.5596ZM162.367 23.8156C164.507 23.8156 166.079 25.0532 166.595 27.1674H158.19C158.655 25.1047 160.227 23.8156 162.367 23.8156Z" fill="#ABACB1"/>
<path d="M178.401 35.7533C182.061 35.7533 184.975 33.8453 184.975 30.2356C184.975 26.3423 181.675 25.5431 178.864 24.847C176.724 24.3313 174.868 23.8931 174.868 22.2171C174.868 20.7474 176.337 19.9224 178.142 19.9224C180.024 19.9224 181.52 20.9022 181.52 22.7069H184.459C184.459 19.3036 182.138 17.1636 178.22 17.1636C174.378 17.1636 171.903 19.0974 171.903 22.346C171.903 26.0588 175.075 26.8322 177.833 27.5026C179.999 28.0183 181.932 28.4566 181.932 30.2614C181.932 31.9115 180.308 32.9429 178.374 32.9429C176.26 32.9429 174.61 31.8084 174.61 29.7974H171.593C171.593 33.4843 174.353 35.7533 178.401 35.7533Z" fill="#ABACB1"/>
<path d="M204.763 21.5466L201.565 31.009L197.517 21.7013H196.59L192.592 30.9317L189.447 21.5466H186.508L191.175 35.4695H193.495L197.053 27.0126L200.663 35.4695H202.983L207.624 21.5466H204.763Z" fill="#ABACB1"/>
<path d="M221.465 21.5467L221.131 23.2999C219.867 21.9849 218.088 21.2114 216.026 21.2114C211.874 21.2114 208.781 24.3312 208.781 28.5081C208.781 32.6849 211.874 35.8306 216.026 35.8306C218.062 35.8306 219.815 35.0571 221.079 33.7937L221.363 35.4696H223.658V21.5467H221.465ZM216.257 33.0717C213.628 33.0717 211.694 31.1122 211.694 28.5081C211.694 25.904 213.628 23.9445 216.257 23.9445C218.888 23.9445 220.795 25.8782 220.795 28.5081C220.795 31.138 218.888 33.0717 216.257 33.0717Z" fill="#ABACB1"/>
<path d="M235.241 21.2114C233.231 21.2114 231.477 21.9849 230.214 23.2741L229.672 21.5467H227.764V40.4715H230.627V34.1547C231.837 35.2117 233.436 35.8306 235.241 35.8306C239.392 35.8306 242.46 32.6849 242.46 28.5081C242.46 24.3312 239.392 21.2114 235.241 21.2114ZM235.009 33.0975C232.379 33.0975 230.445 31.138 230.445 28.5081C230.445 25.904 232.379 23.9445 235.009 23.9445C237.639 23.9445 239.547 25.904 239.547 28.5081C239.547 31.138 237.639 33.0975 235.009 33.0975Z" fill="#ABACB1"/>
<path fill-rule="evenodd" clip-rule="evenodd" d="M7.96299 7.96669C7.28914 4.49547 9.98457 1.29126 13.4887 1.29126C16.5884 1.29126 19.149 3.82793 19.149 6.89862V13.8411C19.9576 13.8411 20.7663 13.7076 21.5749 13.7076C22.3836 13.7076 23.0574 13.7076 23.866 13.8411V6.89862C23.866 3.82793 26.4267 1.29126 29.5264 1.29126C33.0306 1.29126 35.726 4.49547 35.1869 7.96669L33.7044 16.1108C38.9605 18.3803 43.0037 22.3855 43.0037 27.3255V30.3961C43.0037 34.5348 40.3082 38.0061 36.3998 40.2757C32.4914 42.6789 27.3702 44.014 21.5749 44.014C15.7798 44.014 10.6584 42.6789 6.75005 40.2757C2.97644 38.0061 0.281006 34.5348 0.281006 30.3961V27.3255C0.281006 22.3855 4.18939 18.3803 9.44549 16.1108L7.96299 7.96669ZM31.6828 17.1788L33.4348 7.56615C33.8392 5.163 32.0872 2.89336 29.5264 2.89336C27.3702 2.89336 25.618 4.62897 25.618 6.76511V15.5767C25.0791 15.4431 24.4052 15.4431 23.866 15.4431C23.0574 15.4431 22.3836 15.3097 21.5749 15.3097C20.7663 15.3097 19.9576 15.3097 19.149 15.4431C18.6099 15.4431 17.9361 15.5767 17.3971 15.5767V6.89862C17.3971 4.76248 15.645 3.02687 13.4887 3.02687C11.0628 3.02687 9.17595 5.29652 9.71504 7.69967L11.467 17.3123C5.80665 19.4484 2.03304 23.1866 2.03304 27.4589V30.5295C2.03304 37.0715 10.7932 42.4118 21.5749 42.4118C32.3568 42.4118 41.1168 37.0715 41.1168 30.5295V27.4589C41.2517 23.0532 37.478 19.3148 31.6828 17.1788Z" fill="#ABACB1"/>
<path fill-rule="evenodd" clip-rule="evenodd" d="M9.42923 7.31655C8.87559 4.8485 10.8133 2.51758 13.3048 2.51758C15.5193 2.51758 18.0247 4.30004 18.0247 6.49387V14.3177C18.7329 14.2476 19.2561 14.4982 19.8021 14.7597C20.3237 15.0095 20.8658 15.2691 21.6094 15.2691C22.27 15.2691 22.7696 15.0212 23.2621 14.7769C23.8015 14.5092 24.332 14.246 25.0555 14.3177V6.49387C25.0555 4.30004 27.5611 2.51758 29.7756 2.51758C32.2669 2.51758 34.2048 4.8485 33.7896 7.31655L31.9902 17.1887C37.8034 19.3825 41.8173 23.2216 41.8173 27.6093C41.8173 34.3277 32.8206 39.8124 21.7478 39.8124C10.6749 39.8124 1.67822 34.3277 1.67822 27.6093C1.67822 23.2216 5.55372 19.3825 11.3669 17.1887L9.42923 7.31655ZM16.0721 26.6338C16.0721 28.4162 15.1032 29.9246 13.8576 29.9246C12.6119 29.9246 11.643 28.4162 11.643 26.6338C11.643 24.8514 12.6119 23.3431 13.8576 23.3431C15.1032 23.3431 16.0721 24.8514 16.0721 26.6338ZM29.2208 29.9246C30.4668 29.9246 31.4356 28.4162 31.4356 26.6338C31.4356 24.8514 30.4668 23.3431 29.2208 23.3431C27.9752 23.3431 27.0064 24.8514 27.0064 26.6338C27.0064 28.4162 27.9752 29.9246 29.2208 29.9246Z" fill="#ABACB1"/>
</g>
<defs>
<clipPath id="clip0_341_4002">
<rect width="242.854" height="44.1552" fill="white" transform="translate(0.153809 0.836426)"/>
</clipPath>
</defs>
</svg>
