<svg width="182" height="40" viewBox="0 0 182 40" fill="none" xmlns="http://www.w3.org/2000/svg">
<g clip-path="url(#clip0_341_3961)">
<path d="M71.0969 13.0492C72.196 13.7108 73.126 14.6201 73.7179 15.8604C74.3943 17.1006 74.7325 18.5887 74.7325 20.2423C74.7325 21.8958 74.3943 23.3014 73.6334 24.5416C72.957 25.7818 71.9423 26.6912 70.6741 27.2699C69.406 27.9314 67.8841 28.2621 66.2777 28.2621C65.3478 28.2621 64.5022 28.0968 63.6567 27.766C62.8113 27.518 62.0502 27.022 61.4586 26.4431V35.0417H56.5547V12.3878H60.7821L61.2048 14.2067C63.0648 12.7186 65.0941 11.9744 67.2078 11.9744C68.645 11.9744 69.9977 12.3052 71.0969 13.0492ZM68.3914 23.3014C69.2368 22.5573 69.6596 21.5651 69.6596 20.3249C69.6596 19.0848 69.2368 18.0927 68.4759 17.2659C67.715 16.4391 66.7003 16.1084 65.6013 16.1084C64.6713 16.1084 63.8257 16.2738 63.1494 16.6872C62.4731 17.0178 61.9658 17.5965 61.543 18.3407V22.0613C61.7967 22.8053 62.3039 23.3841 62.8958 23.7975C63.5722 24.2109 64.3332 24.4588 65.2631 24.4588C66.5313 24.4588 67.5459 24.0455 68.3914 23.3014Z" fill="#ABACB1"/>
<path d="M77.6079 15.9412C78.3688 14.7838 79.3834 13.7916 80.7362 13.1302C82.0889 12.4688 83.6108 12.0554 85.3017 12.0554C86.9927 12.0554 88.5145 12.386 89.8673 13.1302C91.1354 13.7916 92.1501 14.7838 92.911 16.024C93.6719 17.2641 94.01 18.587 94.01 20.1579C94.01 21.7287 93.6719 23.0516 92.911 24.2918C92.1501 25.532 91.2201 26.5241 89.8673 27.1855C88.599 27.847 86.9927 28.2604 85.3017 28.2604C83.6108 28.2604 82.0889 27.9296 80.7362 27.2682C79.3834 26.6068 78.3688 25.6973 77.6079 24.4571C76.9316 23.2169 76.5088 21.8114 76.5088 20.1579C76.5088 18.587 76.9316 17.1814 77.6079 15.9412ZM82.5962 23.1343C83.2726 23.9611 84.2026 24.2918 85.3017 24.2918C86.4009 24.2918 87.3309 23.8784 88.0072 23.1343C88.6837 22.3901 89.0219 21.3153 89.0219 20.1579C89.0219 18.9177 88.6837 17.9255 88.0072 17.1814C87.2463 16.3546 86.4009 15.9412 85.2172 15.9412C84.1181 15.9412 83.2727 16.3546 82.5117 17.0987C81.8353 17.9255 81.4971 18.9177 81.4971 20.1579C81.4971 21.3153 81.8353 22.3075 82.5962 23.1343Z" fill="#ABACB1"/>
<path d="M101.957 0.646729V27.8479H97.0532V0.646729H101.957Z" fill="#ABACB1"/>
<path d="M122.078 12.7998L112.102 35.1229H107.368L111.088 27.1032L103.986 12.7998H109.566L113.625 21.7291L117.683 12.7998H122.078Z" fill="#ABACB1"/>
<path d="M140.849 12.7994V27.847C140.849 29.2525 140.426 30.5753 139.582 31.7328C138.736 32.8904 137.637 33.7998 136.199 34.4613C134.762 35.1226 133.24 35.4534 131.55 35.4534C130.28 35.4534 129.181 35.288 128.251 35.04C127.322 34.7092 126.561 34.3785 125.969 34.0479C125.292 33.6345 124.616 33.1383 123.855 32.477L126.73 29.1698C127.407 29.8312 128.168 30.3273 128.844 30.658C129.52 30.9887 130.45 31.2368 131.464 31.2368C132.733 31.2368 133.748 30.9062 134.593 30.3273C135.439 29.7485 135.86 28.8391 135.86 27.7642V25.6146C135.354 26.3588 134.677 27.0202 133.663 27.5163C132.648 28.0123 131.464 28.2604 130.111 28.2604C128.759 28.2604 127.407 27.9297 126.224 27.1855C125.039 26.5241 124.109 25.532 123.348 24.2918C122.671 23.0516 122.249 21.7287 122.249 20.2405C122.249 18.7523 122.587 17.3468 123.348 16.1065C124.109 14.8664 125.039 13.8743 126.307 13.1302C127.491 12.386 128.759 12.0554 130.111 12.0554C131.38 12.0554 132.479 12.2207 133.494 12.5514C134.509 12.8822 135.27 13.3782 135.777 13.957L136.283 12.7994H140.849ZM135.86 22.0594V18.3389C135.523 17.5948 135.016 17.0161 134.254 16.6027C133.494 16.1893 132.648 15.9412 131.634 15.9412C130.45 15.9412 129.435 16.3546 128.59 17.0987C127.745 17.843 127.322 18.8349 127.322 20.0751C127.322 21.2326 127.745 22.3075 128.59 23.1343C129.435 23.9611 130.45 24.3745 131.634 24.3745C133.578 24.2918 135.016 23.5477 135.86 22.0594Z" fill="#ABACB1"/>
<path d="M144.908 15.9429C145.668 14.7028 146.684 13.7933 148.036 13.0492C149.388 12.3878 150.91 11.9744 152.602 11.9744C154.293 11.9744 155.814 12.3052 157.167 13.0492C158.436 13.7108 159.45 14.7028 160.211 15.9429C160.887 17.1831 161.31 18.506 161.31 20.077C161.31 21.6479 160.972 22.9707 160.211 24.2109C159.534 25.451 158.52 26.4431 157.167 27.1046C155.899 27.766 154.293 28.1794 152.602 28.1794C150.91 28.1794 149.388 27.8487 148.036 27.1873C146.684 26.5258 145.668 25.6164 144.908 24.3762C144.146 23.136 143.808 21.7305 143.808 19.9943C143.808 18.5887 144.146 17.1831 144.908 15.9429ZM149.811 23.136C150.488 23.9628 151.417 24.2936 152.517 24.2936C153.616 24.2936 154.547 23.8801 155.223 23.136C155.899 22.3919 156.237 21.3171 156.237 20.1596C156.237 18.9194 155.899 17.9273 155.223 17.1831C154.547 16.4391 153.616 16.0257 152.517 16.0257C151.417 16.0257 150.572 16.4391 149.811 17.1831C149.05 17.9273 148.712 19.0021 148.712 20.1596C148.798 21.3171 149.134 22.3092 149.811 23.136Z" fill="#ABACB1"/>
<path d="M178.641 13.2955C179.656 14.1223 180.078 15.1972 180.163 16.52V27.847H175.174V18.3389C175.09 16.8508 174.329 16.1066 172.892 16.1066C171.793 16.1066 170.863 16.6027 170.186 17.6775C169.51 18.7523 169.172 20.0751 169.172 21.646V27.847H164.269V12.7994H168.749L169.087 15.1972C169.68 14.205 170.44 13.4609 171.455 12.8822C172.469 12.3034 173.653 12.0554 175.006 12.0554C176.443 12.0554 177.711 12.4688 178.641 13.2955Z" fill="#ABACB1"/>
<path d="M35.5868 12.5533C34.7412 12.0572 33.6421 12.0572 32.7122 12.5533L26.1175 16.3564L21.6364 18.8368L15.0417 22.6401C14.1962 23.1361 13.0972 23.1361 12.1671 22.6401L6.92515 19.6636C6.07968 19.1675 5.48784 18.258 5.48784 17.266V11.3957C5.48784 10.4036 5.99513 9.49415 6.92515 8.99808L12.0826 6.10432C12.928 5.60825 14.0271 5.60825 14.9572 6.10432L20.1146 8.99808C20.96 9.49415 21.5518 10.4036 21.5518 11.3957V15.199L26.0328 12.6359V8.83272C26.0328 7.84057 25.5256 6.93111 24.5955 6.43503L15.0417 0.978255C14.1962 0.482183 13.0972 0.482183 12.1671 0.978255L2.44414 6.43503C1.51413 6.93111 1.00684 7.84057 1.00684 8.83272V19.829C1.00684 20.8211 1.51413 21.7305 2.44414 22.2267L12.1671 27.6834C13.0125 28.1795 14.1117 28.1795 15.0417 27.6834L21.6364 23.9629L26.1175 21.3999L32.7122 17.6794C33.5575 17.1832 34.6566 17.1832 35.5868 17.6794L40.7441 20.5731C41.5896 21.0692 42.1814 21.9786 42.1814 22.9707V28.8408C42.1814 29.833 41.6741 30.7426 40.7441 31.2386L35.5868 34.215C34.7412 34.7112 33.6421 34.7112 32.7122 34.215L27.5547 31.3213C26.7093 30.8252 26.1175 29.9158 26.1175 28.9236V25.1204L21.6364 27.6834V31.4866C21.6364 32.4788 22.1437 33.3882 23.0736 33.8843L32.7966 39.341C33.6421 39.8372 34.7412 39.8372 35.6712 39.341L45.3942 33.8843C46.2397 33.3882 46.8316 32.4788 46.8316 31.4866V20.4904C46.8316 19.4983 46.3242 18.5888 45.3942 18.0928L35.5868 12.5533Z" fill="#ABACB1"/>
</g>
<defs>
<clipPath id="clip0_341_3961">
<rect width="181.036" height="39.7397" fill="white" transform="translate(0 0.0441895)"/>
</clipPath>
</defs>
</svg>
